<?xml version="1.0" encoding="utf-8"?>
<!DOCTYPE svg PUBLIC "-//W3C//DTD SVG 20010904//EN" "http://www.w3.org/TR/2001/REC-SVG-20010904/DTD/svg10.dtd">
<svg version="1.0" xmlns="http://www.w3.org/2000/svg" width="50px" height="51px" viewBox="0 0 50 51" preserveAspectRatio="xMidYMid meet">
 <g fill="#ffffff">
  <path d="M24.97 49.82 c-2.92 -0.21 -5.75 -0.93 -8.47 -2.17 -4.42 -2 -8.33 -5.50 -10.85 -9.71 -1.80 -3 -2.89 -6.24 -3.34 -9.89 -0.15 -1.21 -0.15 -4.25 0 -5.46 0.50 -4.07 1.81 -7.64 3.99 -10.92 1.70 -2.56 4.17 -5.04 6.74 -6.76 4.24 -2.84 9.17 -4.27 14.26 -4.14 3.72 0.10 7.05 0.92 10.30 2.54 2.94 1.47 5.31 3.29 7.53 5.78 0.75 0.84 2.05 2.55 2.05 2.69 0 0.05 -3.93 2.14 -3.96 2.11 -0.01 -0.01 -0.18 -0.24 -0.38 -0.52 -1.33 -1.80 -3.02 -3.42 -4.90 -4.69 -4.11 -2.77 -9.03 -3.92 -13.94 -3.26 -3.72 0.50 -7.28 2.08 -10.18 4.51 -0.56 0.46 -1.88 1.78 -2.35 2.34 -2.67 3.12 -4.26 6.86 -4.72 11.08 -0.09 0.90 -0.08 3.22 0.03 4.14 0.50 4.21 2.07 7.81 4.77 10.94 2.63 3.06 6.31 5.34 10.22 6.33 1.79 0.46 2.76 0.56 5.03 0.56 2 0 2.44 -0.04 4.01 -0.36 3.23 -0.65 6.45 -2.24 9.05 -4.47 1.06 -0.92 2.54 -2.55 3.31 -3.70 0.16 -0.23 0.32 -0.42 0.35 -0.42 0.06 0 3.41 1.73 3.77 1.95 l0.19 0.12 -0.46 0.68 c-1.51 2.23 -3.58 4.37 -5.77 5.99 -4.65 3.42 -10.48 5.11 -16.27 4.69z"/>
  <path d="M25.65 39.81 c-2.17 -0.21 -3.77 -0.63 -5.38 -1.43 -3.14 -1.53 -5.39 -3.78 -6.94 -6.92 -0.42 -0.85 -1.13 -2.88 -1.04 -2.98 0.02 -0.01 6.48 -0.02 14.38 -0.01 l14.35 0.02 -0.19 0.65 c-1.17 4.05 -3.99 7.38 -7.78 9.23 -1.62 0.79 -3.30 1.26 -5.16 1.42 -0.63 0.06 -1.76 0.07 -2.23 0.02z"/>
  <path d="M15.73 27.59 c-0.56 -0.12 -1.13 -0.57 -1.35 -1.09 -0.18 -0.40 -0.26 -1 -0.18 -1.47 0.12 -0.81 0.59 -1.46 1.29 -1.78 0.29 -0.13 0.40 -0.16 0.95 -0.15 0.44 0 0.68 0.03 0.84 0.10 0.21 0.09 0.22 0.11 0.22 0.36 0 0.15 -0.01 0.27 -0.01 0.27 -0.01 0 -0.16 -0.05 -0.33 -0.12 -0.21 -0.08 -0.45 -0.12 -0.73 -0.12 -0.71 0 -1.23 0.33 -1.51 0.97 -0.19 0.43 -0.19 1.23 0 1.65 0.15 0.34 0.49 0.69 0.82 0.82 0.31 0.13 1.02 0.12 1.41 -0.04 0.18 -0.06 0.33 -0.12 0.34 -0.12 0.05 0 0 0.46 -0.06 0.51 -0.23 0.18 -1.23 0.30 -1.69 0.20z"/>
  <path d="M21.34 27.58 c-0.48 -0.12 -0.85 -0.38 -1.12 -0.79 -0.27 -0.39 -0.39 -0.83 -0.39 -1.41 0 -0.83 0.23 -1.40 0.74 -1.84 0.37 -0.33 0.75 -0.45 1.40 -0.45 0.46 0 0.57 0.02 0.86 0.16 0.87 0.43 1.33 1.51 1.11 2.63 -0.21 1.04 -0.91 1.67 -1.93 1.73 -0.25 0.01 -0.55 -0.01 -0.67 -0.04z m1.19 -0.57 c0.29 -0.12 0.56 -0.39 0.72 -0.75 0.11 -0.25 0.13 -0.40 0.13 -0.92 0 -0.68 -0.11 -1.03 -0.43 -1.37 -0.50 -0.54 -1.63 -0.52 -2.10 0.04 -0.30 0.36 -0.39 0.63 -0.42 1.20 -0.03 0.67 0.08 1.07 0.38 1.42 0.43 0.50 1.08 0.65 1.73 0.38z"/>
  <path d="M27 27.58 c-0.54 -0.12 -0.59 -0.15 -0.59 -0.50 l0 -0.31 0.19 0.11 c0.31 0.18 0.90 0.31 1.21 0.26 0.53 -0.08 0.71 -0.25 0.71 -0.67 0 -0.32 -0.19 -0.52 -0.85 -0.86 -1.04 -0.55 -1.23 -0.75 -1.23 -1.35 0 -0.48 0.19 -0.77 0.66 -1 0.31 -0.15 0.39 -0.16 0.96 -0.16 0.79 0.01 0.88 0.05 0.88 0.45 l0 0.29 -0.18 -0.09 c-0.26 -0.13 -0.73 -0.21 -1.03 -0.16 -0.37 0.05 -0.63 0.23 -0.69 0.50 -0.11 0.42 0.08 0.63 0.94 1.06 0.89 0.45 1.17 0.82 1.13 1.42 -0.05 0.65 -0.52 1.01 -1.37 1.06 -0.26 0.01 -0.59 0 -0.73 -0.03z"/>
  <path d="M36.45 27.58 c-0.35 -0.08 -0.72 -0.30 -1 -0.62 -0.60 -0.69 -0.70 -1.95 -0.23 -2.86 0.22 -0.40 0.48 -0.65 0.93 -0.86 0.28 -0.12 0.40 -0.15 0.88 -0.15 0.59 0 0.82 0.06 1.24 0.35 0.29 0.21 0.60 0.68 0.73 1.10 0.13 0.48 0.09 1.34 -0.09 1.81 -0.17 0.44 -0.58 0.88 -0.98 1.07 -0.36 0.17 -1.04 0.24 -1.48 0.15z m1.20 -0.59 c0.31 -0.13 0.55 -0.38 0.70 -0.70 0.11 -0.22 0.12 -0.38 0.12 -0.94 0 -0.64 -0.01 -0.70 -0.18 -1.02 -0.25 -0.48 -0.59 -0.69 -1.16 -0.72 -0.54 -0.04 -0.85 0.09 -1.18 0.46 -0.31 0.34 -0.45 0.75 -0.45 1.29 0 1.37 1.01 2.14 2.14 1.65z"/>
  <path d="M31.75 25.35 l0 -2.23 0.26 0 0.26 0 0 2.23 0 2.23 -0.26 0 -0.26 0 0 -2.23z"/>
  <path d="M12.24 21.67 c0.02 -0.09 0.13 -0.47 0.24 -0.84 1.48 -4.96 5.53 -8.85 10.52 -10.09 3.45 -0.86 6.94 -0.50 10.13 1.06 3.23 1.57 5.93 4.50 7.25 7.88 0.23 0.60 0.65 1.92 0.65 2.08 0 0.07 -2.05 0.08 -14.41 0.08 l-14.41 0 0.04 -0.16z"/>
 </g>
</svg>