<svg height="512pt" fill="#00ffcc" viewBox="0 0 512.00003 512" width="512pt" xmlns="http://www.w3.org/2000/svg"><path d="m437.0625 74.457031c-28.589844-28.777343-63.671875-50.269531-102.292969-62.675781l-3.863281-1.183594c-5.011719-1.527344-10.3125 1.296875-11.839844 6.3125-1.527344 5.011719 1.296875 10.3125 6.3125 11.839844l3.535156 1.109375c124.546876 40.308594 192.835938 173.945313 152.527344 298.492187-7.855468 24.277344-19.582031 47.128907-34.722656 67.667969-14.488281-6.75-31.628906-3.949219-43.214844 7.058594-14.882812 14.792969-14.957031 38.847656-.167968 53.734375 14.792968 14.882812 38.851562 14.957031 53.734374.164062 13.136719-13.050781 14.949219-33.671874 4.292969-48.816406 75.835938-101.851562 65.488281-243.914062-24.300781-333.703125zm6.714844 368.882813c-7.503906 7.167968-19.320313 7.167968-26.824219 0-7.410156-7.40625-7.410156-19.417969-.003906-26.828125 7.40625-7.410157 19.417969-7.410157 26.828125-.003907s7.410156 19.417969.003906 26.828126c-.003906 0-.003906 0-.003906.003906zm0 0"/><path d="m160.96875 37.390625c1.25.003906 2.488281-.246094 3.640625-.730469 5.597656-2.324218 11.382813-4.46875 17.074219-6.355468 4.976562-1.636719 7.683594-6.996094 6.046875-11.972657-1.636719-4.976562-7-7.683593-11.976563-6.046875-6.203125 2.039063-12.414062 4.351563-18.445312 6.867188-4.835938 2.015625-7.121094 7.570312-5.105469 12.402344 1.476563 3.539062 4.933594 5.839843 8.765625 5.835937zm0 0"/><path d="m271.636719 18.941406c6.015625.398438 12.121093 1.027344 18.152343 1.898438 5.191407.738281 9.996094-2.867188 10.734376-8.058594.738281-5.1875-2.867188-9.992188-8.058594-10.730469-6.503906-.949219-13.097656-1.601562-19.574219-2.0312498-5.238281-.3437502-9.765625 3.6210938-10.113281 8.8593748-.34375 5.238282 3.621094 9.765625 8.859375 10.113282zm0 0"/><path d="m215.542969 21.75c.523437.003906 1.042969-.042969 1.554687-.132812 5.9375-.949219 12.027344-1.746094 18.109375-2.277344 5.230469-.460938 9.097657-5.074219 8.632813-10.304688-.460938-5.230468-5.074219-9.097656-10.304688-8.636718-6.550781.582031-13.117187 1.414062-19.519531 2.46875-5.167969.839843-8.675781 5.714843-7.835937 10.886718.746093 4.589844 4.714843 7.960938 9.363281 7.957032zm0 0"/><path d="m294.695312 489.5c-5.984374.949219-12.074218 1.746094-18.105468 2.269531-5.238282.222657-9.304688 4.652344-9.078125 9.890625.222656 5.238282 4.652343 9.300782 9.890625 9.078125.277344.011719.550781.011719.828125 0 6.515625-.558593 13.085937-1.386719 19.546875-2.449219 5.167968-.851562 8.664062-5.730468 7.816406-10.898437-.746094-5.125-5.507812-8.675781-10.632812-7.933594-.089844.015625-.175782.027344-.265626.042969zm0 0"/><path d="m347.183594 474.488281c-5.625 2.339844-11.382813 4.476563-17.074219 6.351563-5.011719 1.527344-7.835937 6.824218-6.3125 11.835937s6.824219 7.839844 11.832031 6.3125c.132813-.039062.261719-.082031.390625-.125 6.183594-2.03125 12.398438-4.335937 18.46875-6.847656 4.839844-2.011719 7.132813-7.566406 5.121094-12.40625s-7.566406-7.132813-12.40625-5.121094zm0 0"/><path d="m240.136719 492.128906c-6.078125-.398437-12.175781-1.035156-18.125-1.898437-5.195313-.660157-9.945313 3.015625-10.605469 8.210937-.648438 5.070313 2.839844 9.738282 7.882812 10.558594 6.441407.949219 13.035157 1.632812 19.597657 2.058594h.636719c5.238281.171875 9.621093-3.9375 9.792968-9.175782.167969-5.238281-3.941406-9.621093-9.179687-9.792968zm0 0"/><path d="m186.433594 482.285156c-4.195313-1.265625-8.375-2.671875-12.527344-4.214844-122.820312-45.351562-185.621094-181.679687-140.269531-304.5 7.699219-20.847656 18.289062-40.507812 31.460937-58.40625 18.800782 9.152344 41.460938 1.328126 50.613282-17.472656 7.074218-14.527344 4.144531-31.941406-7.289063-43.359375-15.003906-14.34375-38.636719-14.34375-53.644531 0-13.046875 12.992188-14.820313 33.5-4.203125 48.542969-84.371094 113.507812-60.753907 273.925781 52.757812 358.300781 19.574219 14.546875 41.125 26.226563 64 34.679688 4.476563 1.652343 8.988281 3.167969 13.535157 4.554687.898437.28125 1.835937.421875 2.78125.414063 5.238281-.003907 9.476562-4.257813 9.46875-9.496094-.003907-4.160156-2.722657-7.832031-6.699219-9.054687zm-118.253906-414.542968c7.277343-7.535157 19.285156-7.746094 26.824218-.464844 7.535156 7.277344 7.742188 19.285156.464844 26.820312-.152344.160156-.308594.3125-.464844.46875-7.507812 7.167969-19.320312 7.167969-26.824218 0-7.40625-7.410156-7.40625-19.417968 0-26.824218zm0 0"/><path d="m407.050781 334.8125c26.203125-49.601562 26.203125-108.945312 0-158.546875-.105469-.253906-.238281-.484375-.351562-.730469-44.09375-83.242187-147.324219-114.972656-230.566407-70.878906-30.191406 15.996094-54.882812 40.6875-70.878906 70.878906-.113281.246094-.246094.476563-.347656.730469-26.207031 49.601563-26.207031 108.949219 0 158.546875.101562.257812.234375.484375.347656.730469 44.097656 83.242187 147.324219 114.976562 230.566406 70.878906 30.191407-15.992187 54.886719-40.683594 70.878907-70.878906.085937-.246094.246093-.472657.351562-.730469zm-214.527343-216.945312-6.136719 20.488281c-3.15625 10.527343-5.839844 21.152343-8.136719 31.820312h-47.640625c15.546875-22.695312 36.9375-40.769531 61.914063-52.308593zm-72.792969 71.28125h54.945312c-3.128906 18.816406-4.921875 37.835937-5.371093 56.90625h-64.597657c1.207031-19.773438 6.3125-39.113282 15.023438-56.90625zm-15.023438 75.875h64.597657c.449218 19.074218 2.246093 38.089843 5.371093 56.910156h-54.945312c-8.710938-17.792969-13.816407-37.132813-15.023438-56.910156zm25.902344 75.878906h47.640625c2.296875 10.671875 4.980469 21.292968 8.136719 31.824218l6.136719 20.484376c-24.976563-11.535157-46.367188-29.609376-61.914063-52.308594zm115.882813 65.910156c-10.71875-.644531-21.339844-2.433594-31.679688-5.339844l-10.25-34.191406c-2.628906-8.738281-4.894531-17.539062-6.886719-26.378906h48.816407zm0-84.878906h-52.402344c-3.277344-18.804688-5.164063-37.824219-5.632813-56.910156h58.035157zm0-75.878906h-58.035157c.472657-19.082032 2.355469-38.101563 5.632813-56.90625h52.402344zm0-75.878907h-48.816407c1.992188-8.839843 4.257813-17.640625 6.886719-26.375l10.25-34.191406c10.339844-2.90625 20.960938-4.699219 31.679688-5.34375zm160.757812 75.878907h-66.03125c-.453125-19.070313-2.242188-38.085938-5.359375-56.90625h56.367187c8.707032 17.792968 13.8125 37.132812 15.023438 56.90625zm-25.902344-75.878907h-49.074218c-2.296876-10.667969-4.96875-21.292969-8.128907-31.820312l-6.394531-21.292969c25.691406 11.503906 47.703125 29.882812 63.597656 53.113281zm-115.886718-65.90625c10.1875.621094 20.28125 2.277344 30.132812 4.941407l10.378906 34.589843c2.617188 8.734375 4.882813 17.535157 6.875 26.375h-47.386718zm0 84.878907h50.972656c3.277344 18.804687 5.164062 37.824218 5.632812 56.90625h-56.605468zm40.511718 178.132812-10.375 34.589844c-9.851562 2.660156-19.949218 4.316406-30.132812 4.941406v-65.910156h47.421875c-2.03125 8.839844-4.296875 17.644531-6.914063 26.378906zm-40.511718-45.347656v-56.910156h56.605468c-.472656 19.085937-2.355468 38.105468-5.632812 56.910156zm52.292968 72.085937 6.390625-21.292969c3.160157-10.53125 5.832031-21.152343 8.128907-31.824218h49.074218c-15.894531 23.230468-37.90625 41.613281-63.59375 53.117187zm18.105469-72.085937c3.117187-18.820313 4.90625-37.835938 5.359375-56.910156h66.03125c-1.210938 19.777343-6.316406 39.117187-15.023438 56.910156zm0 0"/></svg>
