<svg id="Capa_1" enable-background="new 0 0 512 512" height="512" viewBox="0 0 512 512" width="512" xmlns="http://www.w3.org/2000/svg" xmlns:xlink="http://www.w3.org/1999/xlink"><linearGradient id="SVGID_1_" gradientUnits="userSpaceOnUse" x1="256" x2="256" y1="511.999" y2=".001"><stop offset="0" stop-color="#5558ff"/><stop offset="1" stop-color="#00c0ff"/></linearGradient><g><g><g><path d="m317 210.001c-24.813 0-45 20.187-45 45s20.187 45 45 45 45-20.187 45-45-20.186-45-45-45zm0 60c-8.271 0-15-6.729-15-15s6.729-15 15-15 15 6.729 15 15-6.728 15-15 15zm0-119.96c-28.073 0-54.44 10.907-74.246 30.713-5.858 5.858-5.858 15.355 0 21.213 5.857 5.858 15.355 5.858 21.213 0 14.14-14.139 32.974-21.926 53.033-21.926s38.894 7.787 53.033 21.926c5.856 5.858 15.354 5.858 21.213 0 5.858-5.858 5.858-15.355 0-21.213-19.805-19.805-46.173-30.713-74.246-30.713zm116.673-11.713c-64.334-64.333-169.012-64.333-233.346 0-5.858 5.858-5.858 15.355 0 21.213 5.857 5.858 15.355 5.858 21.213 0 52.637-52.637 138.283-52.637 190.92 0 5.857 5.857 15.355 5.858 21.213 0 5.858-5.857 5.858-15.355 0-21.213zm-116.673-138.327c-107.523 0-195 87.477-195 195 0 48.374 17.712 92.684 46.983 126.803l-20.29 20.29-10.604-10.605c-5.853-5.854-15.357-5.857-21.213 0l-112.482 112.483c-5.858 5.858-5.858 15.355 0 21.213l42.422 42.422c5.853 5.854 15.357 5.857 21.213 0l112.482-112.483c5.858-5.858 5.858-15.355 0-21.213l-10.604-10.604 20.29-20.29c34.119 29.271 78.429 46.984 126.803 46.984 107.523 0 195-87.477 195-195s-87.476-195-195-195zm-259.578 475.787-21.209-21.209 91.27-91.27 21.209 21.209zm259.578-115.787c-90.981 0-165-74.019-165-165s74.019-165 165-165 165 74.019 165 165-74.018 165-165 165z" fill="#AAF3C2"/></g></g></g></svg>
